{
  "asset": {
    "version": "2.0",
    "generator": "Generated by script"
  },
  "scene": 0,
  "scenes": [
    {
      "nodes": [
        0
      ]
    }
  ],
  "nodes": [
    {
      "name": "Root",
      "children": [
        1,
        2
      ]
    },
    {
      "name": "RigBone"
    },
    {
      "name": "Piece",
      "mesh": 0,
      "skin": 0
    }
  ],
  "skins": [
    {
      "joints": [
        1
      ],
      "inverseBindMatrices": 6,
      "skeleton": 1
    }
  ],
  "meshes": [
    {
      "name": "QueenMesh",
      "primitives": [
        {
          "attributes": {
            "POSITION": 0,
            "NORMAL": 1,
            "TEXCOORD_0": 2,
            "WEIGHTS_0": 3,
            "JOINTS_0": 4
          },
          "indices": 5,
          "material": 0
        }
      ]
    }
  ],
  "materials": [
    {
      "name": "QueenMaterial",
      "pbrMetallicRoughness": {
        "baseColorFactor": [
          0.95,
          0.7,
          0.85,
          1.0
        ],
        "metallicFactor": 0.1,
        "roughnessFactor": 0.4
      }
    }
  ],
  "animations": [
    {
      "name": "Idle",
      "samplers": [
        {
          "input": 7,
          "output": 8,
          "interpolation": "LINEAR"
        }
      ],
      "channels": [
        {
          "sampler": 0,
          "target": {
            "node": 1,
            "path": "translation"
          }
        }
      ]
    },
    {
      "name": "Move",
      "samplers": [
        {
          "input": 9,
          "output": 10,
          "interpolation": "LINEAR"
        }
      ],
      "channels": [
        {
          "sampler": 0,
          "target": {
            "node": 1,
            "path": "translation"
          }
        }
      ]
    },
    {
      "name": "Attack",
      "samplers": [
        {
          "input": 11,
          "output": 12,
          "interpolation": "LINEAR"
        }
      ],
      "channels": [
        {
          "sampler": 0,
          "target": {
            "node": 1,
            "path": "translation"
          }
        }
      ]
    },
    {
      "name": "Hit",
      "samplers": [
        {
          "input": 13,
          "output": 14,
          "interpolation": "LINEAR"
        }
      ],
      "channels": [
        {
          "sampler": 0,
          "target": {
            "node": 1,
            "path": "translation"
          }
        }
      ]
    },
    {
      "name": "Death",
      "samplers": [
        {
          "input": 15,
          "output": 16,
          "interpolation": "LINEAR"
        }
      ],
      "channels": [
        {
          "sampler": 0,
          "target": {
            "node": 1,
            "path": "translation"
          }
        }
      ]
    }
  ],
  "buffers": [
    {
      "uri": "data:application/octet-stream;base64,",
      "byteLength": 600
    }
  ],
  "bufferViews": [
    {
      "buffer": 0,
      "byteOffset": 0,
      "byteLength": 48,
      "target": 34962
    },
    {
      "buffer": 0,
      "byteOffset": 48,
      "byteLength": 48,
      "target": 34962
    },
    {
      "buffer": 0,
      "byteOffset": 96,
      "byteLength": 32,
      "target": 34962
    },
    {
      "buffer": 0,
      "byteOffset": 128,
      "byteLength": 64,
      "target": 34962
    },
    {
      "buffer": 0,
      "byteOffset": 192,
      "byteLength": 32,
      "target": 34962
    },
    {
      "buffer": 0,
      "byteOffset": 224,
      "byteLength": 24,
      "target": 34963
    },
    {
      "buffer": 0,
      "byteOffset": 248,
      "byteLength": 64
    },
    {
      "buffer": 0,
      "byteOffset": 312,
      "byteLength": 12
    },
    {
      "buffer": 0,
      "byteOffset": 324,
      "byteLength": 36
    },
    {
      "buffer": 0,
      "byteOffset": 360,
      "byteLength": 12
    },
    {
      "buffer": 0,
      "byteOffset": 372,
      "byteLength": 36
    },
    {
      "buffer": 0,
      "byteOffset": 408,
      "byteLength": 16
    },
    {
      "buffer": 0,
      "byteOffset": 424,
      "byteLength": 48
    },
    {
      "buffer": 0,
      "byteOffset": 472,
      "byteLength": 16
    },
    {
      "buffer": 0,
      "byteOffset": 488,
      "byteLength": 48
    },
    {
      "buffer": 0,
      "byteOffset": 536,
      "byteLength": 16
    },
    {
      "buffer": 0,
      "byteOffset": 552,
      "byteLength": 48
    }
  ],
  "accessors": [
    {
      "bufferView": 0,
      "componentType": 5126,
      "count": 4,
      "type": "VEC3",
      "min": [
        -0.45,
        0.0,
        0.0
      ],
      "max": [
        0.45,
        1.0,
        0.45
      ]
    },
    {
      "bufferView": 1,
      "componentType": 5126,
      "count": 4,
      "type": "VEC3"
    },
    {
      "bufferView": 2,
      "componentType": 5126,
      "count": 4,
      "type": "VEC2"
    },
    {
      "bufferView": 3,
      "componentType": 5126,
      "count": 4,
      "type": "VEC4"
    },
    {
      "bufferView": 4,
      "componentType": 5123,
      "count": 4,
      "type": "VEC4"
    },
    {
      "bufferView": 5,
      "componentType": 5123,
      "count": 12,
      "type": "SCALAR",
      "min": [
        0
      ],
      "max": [
        3
      ]
    },
    {
      "bufferView": 6,
      "componentType": 5126,
      "count": 1,
      "type": "MAT4"
    },
    {
      "bufferView": 7,
      "componentType": 5126,
      "count": 3,
      "type": "SCALAR",
      "min": [
        0.0
      ],
      "max": [
        1.0
      ]
    },
    {
      "bufferView": 8,
      "componentType": 5126,
      "count": 3,
      "type": "VEC3"
    },
    {
      "bufferView": 9,
      "componentType": 5126,
      "count": 3,
      "type": "SCALAR",
      "min": [
        0.0
      ],
      "max": [
        1.0
      ]
    },
    {
      "bufferView": 10,
      "componentType": 5126,
      "count": 3,
      "type": "VEC3"
    },
    {
      "bufferView": 11,
      "componentType": 5126,
      "count": 4,
      "type": "SCALAR",
      "min": [
        0.0
      ],
      "max": [
        1.0
      ]
    },
    {
      "bufferView": 12,
      "componentType": 5126,
      "count": 4,
      "type": "VEC3"
    },
    {
      "bufferView": 13,
      "componentType": 5126,
      "count": 4,
      "type": "SCALAR",
      "min": [
        0.0
      ],
      "max": [
        1.0
      ]
    },
    {
      "bufferView": 14,
      "componentType": 5126,
      "count": 4,
      "type": "VEC3"
    },
    {
      "bufferView": 15,
      "componentType": 5126,
      "count": 4,
      "type": "SCALAR",
      "min": [
        0.0
      ],
      "max": [
        1.0
      ]
    },
    {
      "bufferView": 16,
      "componentType": 5126,
      "count": 4,
      "type": "VEC3"
    }
  ]
}